<svg width="64mm" height="64mm" viewBox="0 0 64 64" xmlns="http://www.w3.org/2000/svg"><g fill="#2ca089" fill-rule="evenodd"><path d="M45.35 8.356A25.283 26.72 0 0010.8 18.14c-.091.168-.182.336-.267.504.79 1.459 6.178 5.498 12.88 10A167.72 167.72 0 0035.06 35.79c3.987 2.226 7.91 4.237 11.318 5.743 4.14 1.8 7.252 3.17 8.155 3.47l.08-.145A25.288 26.726 0 0045.35 8.356zM7.41 31.29A25.3 26.738 0 0046.06 54.2a118.536 125.276 0 01-20.234-9.604h-.045A118.803 125.558 0 017.409 31.331z" fill="#f95"/><path d="M13.509 9.91C5.643 7.81-.121 8.069-1.768 11.178-4.897 17.071 7.977 30.983 26.99 42.26c19.013 11.278 36.959 15.635 40.088 9.735 1.67-3.144-1.238-8.582-7.19-14.686l.25.252a30.666 32.41 0 01-3.169 8.733C54.16 51.79 5.257 23.367 8.244 17.047c.057-.12.13-.24.199-.366a28.02 29.613 0 015.066-6.77z" fill="#ff7f2a"/></g><g fill="#2ad4ff"><path d="M15.09 20.453H6.967l-.44 1.21 9.02 9.491a86.697 86.697 0 015.59-4.303M22.368 38.33l7.928 8.346h8.222l.34-1.106-11.839-12.507a108.062 108.062 0 00-4.651 5.268" fill="#0cf"/><path d="M13.88 46.656H6.533l-.621-1.403C10.908 38.289 33.256 8.439 81.835 5.24c0 0-11.728.57-26.797 7.183C42.01 18.14 26.484 28.373 13.881 46.656" fill="#0ff"/></g></svg>