<svg width="85mm" height="60mm" viewBox="0 0 85 60" xmlns="http://www.w3.org/2000/svg"><g fill="#2ca089" fill-rule="evenodd"><path d="M48.65 7.256A25.283 26.72 0 0014.1 17.04c-.091.168-.182.336-.267.504.79 1.459 6.178 5.498 12.88 10A167.72 167.72 0 0038.36 34.69c3.987 2.226 7.91 4.237 11.318 5.743 4.14 1.8 7.252 3.17 8.155 3.47l.08-.145A25.288 26.726 0 0048.65 7.256zM10.71 30.19A25.3 26.738 0 0049.36 53.1a118.536 125.276 0 01-20.234-9.604h-.045a118.803 125.558 0 01-18.372-13.264z" fill="#f95"/><path d="M16.809 8.81c-7.866-2.1-13.63-1.842-15.277 1.267-3.129 5.894 9.745 19.806 28.758 31.083 19.013 11.278 36.959 15.635 40.088 9.735 1.67-3.144-1.238-8.582-7.19-14.686l.25.252a30.666 32.41 0 01-3.169 8.733C57.46 50.69 8.557 22.267 11.544 15.947c.057-.12.13-.24.199-.366a28.02 29.613 0 015.066-6.77z" fill="#ff7f2a"/></g><g fill="#2ad4ff"><path d="M18.39 19.353h-8.123l-.44 1.21 9.02 9.491a86.697 86.697 0 015.59-4.303M25.668 37.23l7.928 8.346h8.222l.34-1.106-11.839-12.507a108.062 108.062 0 00-4.651 5.268" fill="#0cf"/><path d="M17.18 45.556H9.833l-.621-1.403C14.208 37.189 36.556 7.339 85.135 4.14c0 0-11.728.57-26.797 7.183C45.31 17.04 29.784 27.273 17.181 45.556" fill="#0ff"/></g></svg>